# xmcd
#
# Track frame offsets:
#	150
#	19285
#	29900
#	51555
#	70705
#	80987
#	94002
#	119525
#	135425
#
# Disc length: 2084 seconds
#
# Revision: 2
# Processed by: cddbd v1.4PL0 Copyright (c) Steve Scherf et al.
# Submitted via: EasyCDDAExtractor 5.1.0
#
DISCID=84082209
DTITLE=Charlie Musselwhite - Louisiana Fog
DYEAR=1968
DGENRE=Blues
TTITLE0=Louisiana Fog
TTITLE1=Takin' Care Of Business
TTITLE2=Big Legged Woman
TTITLE3=Riffin
TTITLE4=Leavin'
TTITLE5=Just A Little Bit
TTITLE6=Fell On My Knees
TTITLE7=Directly From My Heart
TTITLE8=Fat City
EXTD=Nothin' But The Blues series, 1995\nLaserLight 17 060\n
EXTT0=
EXTT1=
EXTT2=
EXTT3=
EXTT4=
EXTT5=
EXTT6=
EXTT7=
EXTT8=
PLAYORDER=
